# xmcd
#
# Track frame offsets:
#      182
#      21087
#      42357
#      68192
#      87755
#      118225
#      139957
#      161097
#      179300
#      205207
#      225297
#      245737
#      267462
#      297277
#      325310
# 
# Disc length: 4636 seconds
#
# Revision: 22
# Processed by: cddbd v1.5.2PL0 Copyright (c) Steve Scherf et al.
#
# Submitted via: FreeRIP 1.20
#
DISCID=df121a0f
DTITLE=Michael Jackson - HIStory: Past, Present And Future, Book I [Dis
DYEAR=1995
DGENRE=Pop
TTITLE0=01 Scream [Duet With Janet Jackson]
TTITLE1=02 They Don't Care About Us
TTITLE2=03 Stranger In Moscow
TTITLE3=04 This Time Around
TTITLE4=05 Earth Song
TTITLE5=06 D.S.
TTITLE6=07 Money
TTITLE7=08 Come Together
TTITLE8=09 You Are Not Alone
TTITLE9=10 Childhood (Theme From "Free Willy 2")
TTITLE10=11 Tabloid Junkie
TTITLE11=12 2 Bad
TTITLE12=13 History
TTITLE13=14 Little Susie
TTITLE14=15 Smile
EXTD=CD US 1995 (Epic E2K 59000) UPC 0074645900025 YEAR: 1995
EXTT0=
EXTT1=
EXTT2=
EXTT3=
EXTT4=
EXTT5=
EXTT6=
EXTT7=
EXTT8=
EXTT9=
EXTT10=
EXTT11=
EXTT12=
EXTT13=
EXTT14=
PLAYORDER=
